# xmcd
#
# Track frame offsets:
#	150
#	9986
#	22112
#	33566
#	46505
#	59726
#	71219
#	81966
#	94782
#	105572
#	116901
#
# Disc length: 1696 seconds
#
# Revision: 1
# Processed by: cddbd v1.5.2PL0 Copyright (c) Steve Scherf et al.
# Submitted via: audiograbber 1.83.01
#
DISCID=92069e0b
DTITLE=Mel tillis - Greatest Hits (MGM)
DYEAR=1974
DGENRE=Country
TTITLE0=I ain't never
TTITLE1=Sawmill
TTITLE2=If I throw away my pride
TTITLE3=Thank you for being you
TTITLE4=Memory maker
TTITLE5=Stomp them grapes
TTITLE6=Neon rose
TTITLE7=Midnight, me and the blues
TTITLE8=Would you want the world to end
TTITLE9=It's my love (and I'm gonna give it)
TTITLE10=Stateside
EXTD=
EXTT0=
EXTT1=
EXTT2=
EXTT3=
EXTT4=
EXTT5=
EXTT6=
EXTT7=
EXTT8=
EXTT9=
EXTT10=
PLAYORDER=
